<?xml version="1.0" encoding="UTF-8"?>
<svg width="32px" height="32px" viewBox="0 0 32 32" version="1.1" xmlns="http://www.w3.org/2000/svg" xmlns:xlink="http://www.w3.org/1999/xlink">
    <title>ic/meteo/dia/32/d220</title>
    <g id="ic/meteo/dia/32/d220" stroke="none" stroke-width="1" fill="none" fill-rule="evenodd">
        <g id="Group" transform="translate(2.000000, 2.000000)">
            <path d="M2.1857761,9.78034093 L3.23963965,11.3427579 L1.15029091,11.615413 L2.1857761,9.78034093 Z M2.77498454,6.50095485 C3.27149069,3.94665211 5.74465995,2.27847838 8.29896269,2.77498454 C9.99312668,3.10429666 11.2974716,4.30316729 11.8389472,5.81852681 C9.92004524,6.30100958 8.42956595,7.82454398 8.09780492,9.74657415 L7.979624,9.74276564 C6.60842155,9.74238526 5.36412787,10.2436976 4.4414062,11.0659025 C3.12812061,10.0065022 2.43048361,8.27325848 2.77498454,6.50095485 Z M2.02979048,5.39615922 L1.67018891,7.24614891 L0,5.96155249 L2.02979048,5.39615922 Z M13.6496266,3.18450457 L12.6141414,5.0195766 L11.5602779,3.45715964 L13.6496266,3.18450457 Z M3.18450457,1.15029091 L5.0195766,2.1857761 L3.45715964,3.23963965 L3.18450457,1.15029091 Z M8.83836504,0 L9.40375832,2.02979048 L7.55376863,1.67018891 L8.83836504,0 Z" id="Shape" fill="#FCB400"></path>
            <path d="M19.0682733,6.32303569 C21.1544546,6.32303569 22.8338331,7.91428895 22.8338331,9.86317403 C22.8338331,10.0101949 22.8233548,10.1609798 22.8028397,10.3158027 L22.6818025,11.2292419 L23.6095883,11.1180017 C23.7708945,11.0986613 23.933553,11.0889129 24.0974765,11.0889129 C26.1824733,11.0889129 27.8614972,12.6802664 27.8614972,14.6288976 C27.8614972,16.577845 26.1825456,18.1691895 24.0974765,18.1691895 L7.93345325,18.1691895 C5.84822408,18.1691895 4.16918954,16.5778458 4.16918954,14.6288976 C4.16918954,12.6803138 5.84832628,11.0889129 7.93345325,11.0889129 L8.09147708,11.0943328 L8.30427409,11.1107964 L8.56974375,11.1384872 L9.35644151,11.2286557 L9.37851246,10.4483391 C9.43249709,8.53971714 11.0944282,7.00375463 13.1420048,7.00375463 C13.9260444,7.00375463 14.6718226,7.2289269 15.2990326,7.64210858 L15.8157351,7.98249216 L16.2361722,7.53138101 C16.946514,6.76921458 17.9677924,6.32303569 19.0682733,6.32303569 Z" id="Path" fill="#B0B0B0" fill-rule="nonzero"></path>
            <path d="M16.4893466,22.8454545 L16.5559859,22.8538449 C16.6220703,22.8706256 16.6846591,22.9125772 16.7272727,22.9796999 C17.1534091,23.6956752 17.9772727,25.2767873 17.9772727,25.9032657 C17.9772727,26.7684025 17.3238636,27.4545455 16.5,27.4545455 C15.6761364,27.4545455 15.0227273,26.7684025 15.0227273,25.9032657 C15.0227273,25.2767873 15.8465909,23.7255075 16.2727273,22.9796999 C16.3153409,22.890203 16.4005682,22.8454545 16.4893466,22.8454545 Z M11.7045455,20.2524272 C11.5909091,20.0734334 11.3352273,20.0734334 11.25,20.2524272 C10.8238636,20.9982348 10,22.5495146 10,23.1759929 C10,24.0411297 10.6534091,24.7272727 11.4772727,24.7272727 C12.3011364,24.7272727 12.9545455,24.0411297 12.9545455,23.1759929 C12.9545455,22.5495146 12.1306818,20.9684025 11.7045455,20.2524272 Z M21.75,20.1342454 C21.6363636,19.9552515 21.3806818,19.9552515 21.2954545,20.1342454 C20.8693182,20.880053 20.0454545,22.4313327 20.0454545,23.0578111 C20.0454545,23.9229479 20.6988636,24.6090909 21.5227273,24.6090909 C22.3465909,24.6090909 23,23.9229479 23,23.0578111 C23,22.4313327 22.1761364,20.8502207 21.75,20.1342454 Z" id="Combined-Shape" fill="#04AEEF" fill-rule="nonzero"></path>
        </g>
    </g>
</svg>