<?xml version="1.0" encoding="UTF-8"?>
<svg width="32px" height="32px" viewBox="0 0 32 32" version="1.1" xmlns="http://www.w3.org/2000/svg" xmlns:xlink="http://www.w3.org/1999/xlink">
    <title>ic/meteo/dia/32/d200</title>
    <g id="ic/meteo/dia/32/d200" stroke="none" stroke-width="1" fill="none" fill-rule="evenodd">
        <g id="Group" transform="translate(2.655345, 3.655345)">
            <path d="M3.16681489,6.14679209 C4.38066089,3.28715013 7.68287533,1.9529689 10.5425173,3.16681489 C12.6431245,4.05846977 13.9206037,6.07699389 13.9696412,8.21920091 C13.6200146,8.40243114 13.2908879,8.62071933 12.9864849,8.87081902 L12.8756547,8.96565469 L12.6906851,8.87293322 C11.9071034,8.50297451 11.0404581,8.30608638 10.1448003,8.30608638 L9.91592337,8.31037606 C7.33315471,8.40734612 5.17032232,10.1383119 4.5296887,12.4801157 C2.83277154,10.9154123 2.21276154,8.39440093 3.16681489,6.14679209 Z M1.66473126,9.83016736 L2.50759609,11.916331 L5.32907052e-14,11.716114 L1.66473126,9.83016736 Z M14.1817133,4.77297835 L16.6893094,4.97319535 L15.0245781,6.85914202 L14.1817133,4.77297835 Z M2.57081945,4.67165161 L1.69167441,6.74278753 L0.06011101,4.82807453 L2.57081945,4.67165161 Z M11.8612348,0.06011101 L12.0176578,2.57081945 L9.94652185,1.69167441 L11.8612348,0.06011101 Z M4.97319535,5.59552404e-14 L6.85914202,1.66473126 L4.77297835,2.50759609 L4.97319535,5.59552404e-14 Z" id="Combined-Shape" fill="#FCB400"></path>
            <path d="M16.7445084,9.152347 C19.0677558,9.152347 20.9379728,10.9502565 20.9379728,13.1522436 C20.9379728,13.318358 20.9263038,13.4887254 20.9034574,13.6636551 L20.7686659,14.6957229 L21.801882,14.5700359 C21.9815185,14.5481838 22.1626608,14.5371692 22.3452121,14.5371692 C24.6671403,14.5371692 26.5369624,16.3351921 26.5369624,18.5368923 C26.5369624,20.7389497 24.6672208,22.5369624 22.3452121,22.5369624 L4.34436795,22.5369624 C2.02218092,22.5369624 0.152346999,20.7389506 0.152346999,18.5368923 C0.152346999,16.3352456 2.02229473,14.5371692 4.34436795,14.5371692 L4.52034903,14.5432931 L4.75732752,14.5618948 L5.05296419,14.5931818 L5.92905942,14.6950605 L5.95363844,13.8134041 C6.01375769,11.6569092 7.86454464,9.921471 10.1448003,9.921471 C11.0179353,9.921471 11.8484611,10.1758864 12.546945,10.6427281 L13.1223636,11.0273173 L13.5905777,10.5176203 C14.3816402,9.6564712 15.518973,9.152347 16.7445084,9.152347 Z" id="Path" fill="#B0B0B0" fill-rule="nonzero"></path>
        </g>
    </g>
</svg>