<?xml version="1.0" encoding="UTF-8"?>
<svg width="32px" height="32px" viewBox="0 0 32 32" version="1.1" xmlns="http://www.w3.org/2000/svg" xmlns:xlink="http://www.w3.org/1999/xlink">
    <title>ic/meteo/dia/32/d000</title>
    <g id="ic/meteo/dia/32/d000" stroke="none" stroke-width="1" fill="none" fill-rule="evenodd">
        <path d="M17.75,26.5 L16,30 L14.25,26.5 L17.75,26.5 Z M7.33794193,22.1871843 L9.81281566,24.6620581 L6.10050506,25.8994949 L7.33794193,22.1871843 Z M24.6620581,22.1871843 L25.8994949,25.8994949 L22.1871843,24.6620581 L24.6620581,22.1871843 Z M16,7.25 C20.8324916,7.25 24.75,11.1675084 24.75,16 C24.75,20.8324916 20.8324916,24.75 16,24.75 C11.1675084,24.75 7.25,20.8324916 7.25,16 C7.25,11.1675084 11.1675084,7.25 16,7.25 Z M5.5,14.25 L5.5,17.75 L2,16 L5.5,14.25 Z M26.5,14.25 L30,16 L26.5,17.75 L26.5,14.25 Z M6.10050506,6.10050506 L9.81281566,7.33794193 L7.33794193,9.81281566 L6.10050506,6.10050506 Z M25.8994949,6.10050506 L24.6620581,9.81281566 L22.1871843,7.33794193 L25.8994949,6.10050506 Z M16,2 L17.75,5.5 L14.25,5.5 L16,2 Z" id="Shape" fill="#FCB400" transform="translate(16.000000, 16.000000) scale(-1, 1) translate(-16.000000, -16.000000) "></path>
    </g>
</svg>