<?xml version="1.0" encoding="UTF-8"?>
<svg width="32px" height="32px" viewBox="0 0 32 32" version="1.1" xmlns="http://www.w3.org/2000/svg" xmlns:xlink="http://www.w3.org/1999/xlink">
    <title>ic/meteo/dia/32/d300</title>
    <g id="ic/meteo/dia/32/d300" stroke="none" stroke-width="1" fill="none" fill-rule="evenodd">
        <g id="Group" transform="translate(2.000000, 3.000000)">
            <path d="M6.59020713,17.7949605 C7.85623216,17.7949605 9.0417594,18.2568429 9.93071914,19.0676994 L10.2005772,19.313848 L10.562766,19.2455611 C10.8030852,19.2002515 11.0486799,19.177206 11.2976248,19.177206 C13.3482141,19.177206 15,20.7363502 15,22.6465298 C15,24.5567266 13.3481964,26.1159235 11.2976248,26.1159235 C10.8482459,26.1159235 10.4106017,26.0408803 9.9987324,25.8962854 L9.65236312,25.7746856 L9.34744436,25.9763239 C8.54629429,26.5061128 7.59245803,26.7949605 6.59020713,26.7949605 C4.85286179,26.7949605 3.28158815,25.9209493 2.43214078,24.5360485 L2.26178987,24.258316 L1.93589477,24.2020759 C0.817203997,24.0090218 0,23.0932667 0,22.0273626 C0,20.8511332 0.990571719,19.8740335 2.25565523,19.8181457 L2.5834673,19.8036639 L2.78890415,19.5531695 C3.69104712,18.4531635 5.0809182,17.7949605 6.59020713,17.7949605 Z" id="Path" fill="#B0B0B0" fill-rule="nonzero"></path>
            <path d="M19.0925783,7.79496052 C21.2058529,7.79496052 22.9070415,9.40687941 22.9070415,11.3810747 C22.9070415,11.5300049 22.8964272,11.682748 22.8756456,11.8395816 L22.7530365,12.7648837 L23.6928714,12.6521988 C23.8562726,12.6326073 24.0210435,12.6227322 24.1870959,12.6227322 C26.2991705,12.6227322 28,14.2347527 28,16.2086908 C28,18.1829492 26.2992438,19.7949605 24.1870959,19.7949605 L15.5605705,19.795736 C14.6165368,18.510924 13.0528701,17.677206 11.2976248,17.677206 L11.0422125,17.6831194 C10.9572718,17.6870597 10.8725444,17.6929671 10.7880803,17.7008355 L10.656,17.7159605 L10.4843504,17.5805258 C9.37913501,16.7495522 8.01490957,16.2949605 6.59020713,16.2949605 L6.31350603,16.3007023 C5.52393792,16.3335089 4.7587491,16.5062719 4.05234741,16.8028154 C4.01791243,16.6100853 4,16.4112956 4,16.2086908 C4,14.2348007 5.70094371,12.6227322 7.81315025,12.6227322 L7.97322634,12.6282226 L8.18878695,12.6449 L8.45770427,12.6729503 L9.25461888,12.7642899 L9.27697647,11.9738393 C9.3316622,10.04043 11.0151769,8.48451997 13.0893453,8.48451997 C13.8835672,8.48451997 14.6390309,8.71261655 15.2743865,9.13116423 L15.7977994,9.47596837 L16.2236968,9.01899864 C16.9432638,8.24693394 17.9778055,7.79496052 19.0925783,7.79496052 Z" id="Combined-Shape" fill="#B0B0B0" fill-rule="nonzero"></path>
            <path d="M2.38179216,10.126428 L3.44163069,11.8225242 L1.21561523,12.0343146 L2.38179216,10.126428 Z M3.12814968,6.67020525 C3.74933486,3.97955661 6.43410663,2.30192501 9.12475527,2.92311019 C11.1609692,3.39320722 12.6170207,5.04513562 12.935631,6.98706281 L12.8644489,6.98901386 C10.402523,7.08756202 8.34636284,8.79643694 7.87643863,11.0782664 L7.868,11.1229605 C6.84624854,11.122882 5.89253084,11.3898589 5.08084776,11.8551652 C3.49436335,10.7147961 2.66088213,8.69416336 3.12814968,6.67020525 Z M2.37873067,5.47088413 L1.92882856,7.41962426 L0.205039482,5.99535208 L2.37873067,5.47088413 Z M14.7843848,3.5556064 L13.6182078,5.46349303 L12.5583693,3.76739684 L14.7843848,3.5556064 Z M3.76064589,1.01057575 L5.66853251,2.17675268 L3.97243632,3.23659121 L3.76064589,1.01057575 Z M9.79960843,-1.26565425e-14 L10.3240764,2.17369118 L8.37533626,1.72378908 L9.79960843,-1.26565425e-14 Z" id="Combined-Shape" fill="#FCB400"></path>
        </g>
    </g>
</svg>